<?xml version="1.0" ?>
<!DOCTYPE svg  PUBLIC '-//W3C//DTD SVG 1.1//EN'  'http://www.w3.org/Graphics/SVG/1.1/DTD/svg11.dtd'>
<!-- Uploaded to: SVG Repo, www.svgrepo.com, Generator: SVG Repo Mixer Tools -->
<svg fill="#000000" width="800px" height="800px" viewBox="0 0 32 32" style="fill-rule:evenodd;clip-rule:evenodd;stroke-linejoin:round;stroke-miterlimit:2;" version="1.1" xml:space="preserve" xmlns="http://www.w3.org/2000/svg" xmlns:serif="http://www.serif.com/" xmlns:xlink="http://www.w3.org/1999/xlink">
<g transform="matrix(1,0,0,1,-288,-192)">
<g transform="matrix(1.42857,0,0,1,-130.286,0)">
<path d="M297,204L297,219C297,219.53 297.164,220.039 297.456,220.414C297.747,220.789 298.143,221 298.556,221C301.249,221 306.751,221 309.444,221C309.857,221 310.253,220.789 310.544,220.414C310.836,220.039 311,219.53 311,219C311,214.708 311,204 311,204L304.021,194L297,204Z" style="fill:rgb(144,224,239);"/>
</g>
<path d="M293,206.414L293,219C293,219.808 293.347,220.586 293.982,221.158C294.577,221.693 295.381,222 296.222,222L311.778,222C312.619,222 313.423,221.693 314.018,221.158C314.653,220.586 315,219.808 315,219L315,206.414L316.293,207.707C316.683,208.097 317.317,208.097 317.707,207.707C318.097,207.317 318.097,206.683 317.707,206.293C317.707,206.293 308.126,196.711 305.414,194C304.633,193.219 303.367,193.219 302.586,194L290.293,206.293C289.903,206.683 289.903,207.317 290.293,207.707C290.683,208.097 291.317,208.097 291.707,207.707L293,206.414ZM295,204.414L295,219C295,219.253 295.121,219.492 295.32,219.671C295.559,219.886 295.885,220 296.222,220L299,220L299,215C299,213.343 300.343,212 302,212L306,212C307.657,212 309,213.343 309,215L309,220L311.778,220C312.115,220 312.441,219.886 312.68,219.671C312.879,219.492 313,219.253 313,219L313,204.414L304,195.414L295,204.414ZM307,220L301,220L301,215C301,214.448 301.448,214 302,214C302,214 306,214 306,214C306.552,214 307,214.448 307,215L307,220Z" style="fill:rgb(25,144,167);"/>
</g>
</svg>