<?xml version="1.0" encoding="iso-8859-1"?>
<!-- Generator: Adobe Illustrator 19.0.0, SVG Export Plug-In . SVG Version: 6.00 Build 0)  -->
<svg version="1.1" id="Capa_1" xmlns="http://www.w3.org/2000/svg" xmlns:xlink="http://www.w3.org/1999/xlink" x="0px" y="0px"
	 viewBox="0 0 366.498 366.498" style="enable-background:new 0 0 366.498 366.498;" xml:space="preserve">
<g id="XMLID_1128_">
	<g id="XMLID_1129_">
		<path id="XMLID_1130_" style="fill:#78B9EB;" d="M222.061,80.586c0-4.603-0.53-9.078-1.53-13.374l12.635-10.265l-14.467-25.06
			l-15.224,5.815c-6.504-6.097-14.394-10.73-23.149-13.379l-2.571-16.075h-28.937l-2.571,16.075
			c-8.756,2.648-16.645,7.282-23.149,13.379l-15.222-5.815l-14.469,25.06l12.637,10.265c-1,4.296-1.53,8.771-1.53,13.374
			c0,4.603,0.53,9.078,1.53,13.374l-12.637,10.265l14.469,25.06l15.222-5.815c6.504,6.097,14.394,10.732,23.149,13.38l2.571,16.074
			h28.937l2.571-16.074c8.756-2.648,16.646-7.283,23.149-13.38l15.224,5.815l14.467-25.06L220.53,93.96
			C221.53,89.664,222.061,85.188,222.061,80.586z"/>
		<path id="XMLID_1131_" style="fill:#006DF0;" d="M163.287,8.249h-14.47l-2.571,16.075c-8.756,2.648-16.645,7.282-23.149,13.379
			l-15.222-5.815l-14.469,25.06l12.637,10.265c-1,4.296-1.53,8.771-1.53,13.374c0,4.603,0.53,9.078,1.53,13.374l-12.637,10.265
			l14.469,25.06l15.222-5.815c6.504,6.097,14.394,10.732,23.149,13.38l2.571,16.074h14.47V8.249z"/>
	</g>
	<g id="XMLID_1132_">
		<g id="XMLID_1133_">
			<path id="XMLID_1134_" style="fill:#FFDA44;" d="M353.685,208.567c0-5.311-0.611-10.475-1.765-15.432l14.578-11.844
				l-16.693-28.916l-17.564,6.711c-7.506-7.035-16.608-12.381-26.712-15.438l-2.967-18.548h-33.389l-2.967,18.548
				c-10.101,3.057-19.206,8.402-26.709,15.438l-17.564-6.711l-16.695,28.916l14.58,11.844c-1.154,4.957-1.765,10.121-1.765,15.432
				c0,5.31,0.61,10.475,1.765,15.431l-14.58,11.845l16.695,28.915l17.564-6.71c7.503,7.035,16.608,12.383,26.709,15.438
				l2.967,18.548h33.389l2.967-18.548c10.104-3.055,19.206-8.402,26.712-15.438l17.564,6.71l16.693-28.915l-14.578-11.845
				C353.073,219.042,353.685,213.877,353.685,208.567z"/>
			<path id="XMLID_1135_" style="fill:#FF9811;" d="M285.868,125.102h-16.695l-2.967,18.548
				c-10.101,3.057-19.206,8.402-26.709,15.438l-17.564-6.711l-16.695,28.916l14.58,11.844c-1.154,4.957-1.765,10.121-1.765,15.432
				c0,5.31,0.61,10.475,1.765,15.431l-14.58,11.845l16.695,28.915l17.564-6.71c7.503,7.035,16.608,12.383,26.709,15.438
				l2.967,18.548h16.695V125.102z"/>
		</g>
		<circle id="XMLID_1136_" style="fill:#FFFFFF;" cx="285.869" cy="208.567" r="38.951"/>
	</g>
	<g id="XMLID_1137_">
		<g id="XMLID_1138_">
			<path id="XMLID_1139_" style="fill:#006DF0;" d="M178.135,258.09c0-6.37-0.732-12.568-2.117-18.518l17.495-14.213l-20.032-34.697
				l-21.079,8.053c-9.005-8.443-19.93-14.859-32.052-18.526l-3.561-22.258H76.724l-3.561,22.258
				c-12.122,3.667-23.049,10.083-32.054,18.526l-21.077-8.053L0,225.359l17.495,14.213c-1.384,5.949-2.119,12.147-2.119,18.518
				c0,6.371,0.735,12.569,2.119,18.519L0,290.821l20.032,34.696l21.077-8.053c9.005,8.443,19.932,14.862,32.054,18.526l3.561,22.258
				h40.065l3.561-22.258c12.122-3.664,23.047-10.083,32.052-18.526l21.079,8.053l20.032-34.696l-17.495-14.213
				C177.402,270.659,178.135,264.461,178.135,258.09z"/>
			<path id="XMLID_1140_" style="fill:#0052B4;" d="M96.756,157.931H76.724l-3.561,22.258
				c-12.122,3.667-23.049,10.083-32.054,18.526l-21.077-8.053L0,225.359l17.495,14.213c-1.384,5.949-2.119,12.147-2.119,18.518
				c0,6.371,0.735,12.569,2.119,18.519L0,290.821l20.032,34.696l21.077-8.053c9.005,8.443,19.932,14.862,32.054,18.526l3.561,22.258
				h20.032V157.931z"/>
		</g>
		<circle id="XMLID_1141_" style="fill:#FFFFFF;" cx="96.756" cy="258.09" r="49.802"/>
	</g>
	<circle id="XMLID_1142_" style="fill:#FFFFFF;" cx="163.286" cy="80.586" r="33.386"/>
</g>
<g>
</g>
<g>
</g>
<g>
</g>
<g>
</g>
<g>
</g>
<g>
</g>
<g>
</g>
<g>
</g>
<g>
</g>
<g>
</g>
<g>
</g>
<g>
</g>
<g>
</g>
<g>
</g>
<g>
</g>
</svg>
