<?xml version="1.0" encoding="iso-8859-1"?>
<!-- Generator: Adobe Illustrator 19.0.0, SVG Export Plug-In . SVG Version: 6.00 Build 0)  -->
<svg version="1.1" id="Layer_1" xmlns="http://www.w3.org/2000/svg" xmlns:xlink="http://www.w3.org/1999/xlink" x="0px" y="0px"
	 viewBox="0 0 512 512" style="enable-background:new 0 0 512 512;" xml:space="preserve">
<path style="fill:#A2A9AF;" d="M452.14,2.239l0.011,102.884l-57.585,39.84L337,105.103l-0.05-102.884
	c-35.688,20.16-59.841,58.393-59.841,102.355c0,17.656,4.222,34.281,11.208,49.292L13.378,428.827
	c-17.845,17.784-17.816,46.696-0.04,64.49c17.844,17.844,46.725,17.805,64.53-0.011l278.265-278.273c0,0,24.919,6.927,38.393,6.936
	C459.426,222.019,512,169.385,512,104.525C511.99,60.623,487.848,22.389,452.14,2.239z"/>
<circle style="fill:#FFFFFF;" cx="45.43" cy="461.237" r="12.133"/>
<polygon style="fill:#4C5870;" points="396.184,379.84 242.858,226.515 220.766,248.607 374.091,401.933 387.628,439.262 
	458.148,509.782 504.033,463.897 433.514,393.377 "/>
<path style="fill:#EE3840;" d="M214.385,289.304L16.334,91.263C-2.775,72.165-2.817,41.186,16.323,22.046
	C35.409,2.98,66.422,2.949,85.498,22.088l198.063,198.041L214.385,289.304z"/>
<g>
	<path style="fill:#C21B23;" d="M226.799,232.543c-4.738,4.738-12.42,4.738-17.158,0L42.27,65.172
		c-4.738-4.738-4.738-12.42,0-17.158s12.42-4.738,17.158,0L226.8,215.385C231.537,220.123,231.538,227.806,226.799,232.543z"/>
	<path style="fill:#C21B23;" d="M297.489,223.359l-79.874,79.874c-4.738,4.738-12.42,4.738-17.158,0
		c-4.738-4.738-4.738-12.42,0-17.158l79.874-79.874c4.738-4.738,12.42-4.738,17.158,0
		C302.227,210.939,302.227,218.621,297.489,223.359z"/>
</g>
<g>
</g>
<g>
</g>
<g>
</g>
<g>
</g>
<g>
</g>
<g>
</g>
<g>
</g>
<g>
</g>
<g>
</g>
<g>
</g>
<g>
</g>
<g>
</g>
<g>
</g>
<g>
</g>
<g>
</g>
</svg>
